<svg width="36" height="20" viewBox="0 0 36 20" fill="none" xmlns="http://www.w3.org/2000/svg">
<g clip-path="url(#clip0_3287_44908)">
<path opacity="0.5" d="M34.0924 15.935C34.1589 15.9433 34.2419 16.0006 33.8112 16.1175C31.4964 16.7466 25.2684 18.2193 22.8962 18.7571C20.0092 19.4116 17.9416 19.4735 15.5573 19.4735C13.173 19.4735 6.02822 18.8237 4.94514 18.638C3.86207 18.4523 6.02965 17.7771 8.85699 17.3319C11.8491 16.8607 24.243 15.1934 24.243 15.1934C24.243 15.1934 33.72 15.8886 34.0925 15.935H34.0924Z" fill="black"/>
<path d="M35.4183 13.1813L31.9515 14.8479L24.006 16.3562L18.3713 16.1672L9.27441 15.7131L11.9242 8.87891L35.0575 9.47733C35.0575 9.47733 35.157 10.2165 35.3837 11.0976C35.6105 11.9788 35.4183 13.1815 35.4183 13.1815V13.1813Z" fill="#151717"/>
<path d="M35.013 13.1813L31.5462 14.8479L23.6008 16.3562L17.966 16.1672L8.86914 15.7131L11.5189 8.87891L34.6522 9.47733C34.6522 9.47733 34.7517 10.2165 34.9785 11.0976C35.2052 11.9788 35.013 13.1815 35.013 13.1815V13.1813Z" fill="#151717"/>
<path d="M19.5269 19.448C20.5334 19.448 21.3493 17.5928 21.3493 15.3042C21.3493 13.0157 20.5334 11.1604 19.5269 11.1604C18.5205 11.1604 17.7046 13.0157 17.7046 15.3042C17.7046 17.5928 18.5205 19.448 19.5269 19.448Z" fill="#0C2635"/>
<path d="M19.5269 11.1604H21.8167L21.8598 19.5502L19.5269 19.448V11.1604Z" fill="#0C2635"/>
<path d="M21.8608 19.5503C22.9064 19.5503 23.7539 17.6722 23.7539 15.3554C23.7539 13.0386 22.9064 11.1604 21.8608 11.1604C20.8153 11.1604 19.9678 13.0386 19.9678 15.3554C19.9678 17.6722 20.8153 19.5503 21.8608 19.5503Z" fill="#0C2635"/>
<path d="M21.9829 18.5732C22.7535 18.5732 23.3782 17.1353 23.3782 15.3614C23.3782 13.5876 22.7535 12.1497 21.9829 12.1497C21.2123 12.1497 20.5876 13.5876 20.5876 15.3614C20.5876 17.1353 21.2123 18.5732 21.9829 18.5732Z" fill="#BDC7D8"/>
<path d="M22.0133 18.2373C22.6916 18.2373 23.2414 16.9428 23.2414 15.3458C23.2414 13.7489 22.6916 12.4543 22.0133 12.4543C21.335 12.4543 20.7852 13.7489 20.7852 15.3458C20.7852 16.9428 21.335 18.2373 22.0133 18.2373Z" fill="#0C2635"/>
<path d="M22.1804 12.2459L21.9328 14.8622L23.1947 13.9147L23.2914 14.4688L21.981 15.4646L23.0387 17.243L22.8766 17.729L21.7767 15.9L21.3484 18.1431L21.1161 17.7392L21.5211 15.4586L20.6357 14.812L20.709 14.1576L21.5723 14.819L21.8159 12.2122L22.1804 12.2459Z" fill="#BDC7D8"/>
<path d="M21.3748 15.3612C21.3748 15.8745 21.5555 16.2905 21.7784 16.2905C22.0013 16.2905 22.1821 15.8745 22.1821 15.3612C22.1821 14.8479 22.0013 14.4319 21.7784 14.4319C21.5555 14.4319 21.3748 14.8479 21.3748 15.3612Z" fill="#BDC7D8"/>
<path d="M21.4312 15.3485C21.4312 15.5932 21.5172 15.7915 21.6236 15.7915C21.73 15.7915 21.816 15.593 21.816 15.3485C21.816 15.104 21.73 14.9055 21.6236 14.9055C21.5172 14.9055 21.4312 15.104 21.4312 15.3485Z" fill="#0C2635"/>
<path d="M4.11741 18.5593C5.65626 18.5593 6.90376 16.8549 6.90376 14.7524C6.90376 12.6499 5.65626 10.9454 4.11741 10.9454C2.57855 10.9454 1.33105 12.6499 1.33105 14.7524C1.33105 16.8549 2.57855 18.5593 4.11741 18.5593Z" fill="#0C2635"/>
<path d="M4.08716 10.9453H5.75989L5.56881 18.6797L4.08716 18.5592V10.9453Z" fill="#0C2635"/>
<path d="M5.61137 18.6785C7.09269 18.6785 8.29354 16.9531 8.29354 14.8247C8.29354 12.6963 7.09269 10.9708 5.61137 10.9708C4.13005 10.9708 2.9292 12.6963 2.9292 14.8247C2.9292 16.9531 4.13005 18.6785 5.61137 18.6785Z" fill="#0C2635"/>
<path d="M5.78324 17.7714C6.87503 17.7714 7.76009 16.4504 7.76009 14.8208C7.76009 13.1912 6.87503 11.8701 5.78324 11.8701C4.69146 11.8701 3.8064 13.1912 3.8064 14.8208C3.8064 16.4504 4.69146 17.7714 5.78324 17.7714Z" fill="#F0F2F8"/>
<path d="M5.82551 17.4856C6.78652 17.4856 7.56557 16.2964 7.56557 14.8293C7.56557 13.3623 6.78652 12.173 5.82551 12.173C4.8645 12.173 4.08545 13.3623 4.08545 14.8293C4.08545 16.2964 4.8645 17.4856 5.82551 17.4856Z" fill="#0C2635"/>
<path d="M6.06556 11.9569L5.864 14.3607L7.50246 13.49L7.63955 13.999L5.93214 14.914L7.28159 16.5478L7.05187 16.9943L5.64285 15.3139L4.88666 17.3747L4.55753 17.0035L5.2808 14.9084L3.87695 14.3144L3.98086 13.7132L5.35316 14.3208L5.54887 11.9259L6.06556 11.9569Z" fill="#F0F2F8"/>
<path d="M5.04736 14.8216C5.04736 15.2931 5.30346 15.6753 5.61927 15.6753C5.93507 15.6753 6.19117 15.2931 6.19117 14.8216C6.19117 14.3501 5.93507 13.9679 5.61927 13.9679C5.30346 13.9679 5.04736 14.3501 5.04736 14.8216Z" fill="#A6B3C6"/>
<path d="M5.23975 14.8291C5.23975 15.0537 5.36174 15.2361 5.51244 15.2361C5.66313 15.2361 5.78499 15.0539 5.78499 14.8291C5.78499 14.6042 5.663 14.422 5.51244 14.422C5.36188 14.422 5.23975 14.6042 5.23975 14.8291Z" fill="#F0F2F8"/>
<path d="M6.10228 5.24367C6.35402 5.40226 6.33145 6.00585 6.50159 6.35607C6.50159 6.35607 6.79196 6.57626 6.67391 6.74341C6.6089 6.83549 6.50309 6.90471 6.38109 6.88159C6.30316 6.8669 6.17572 6.73947 6.09996 6.6463C5.72445 6.59272 5.32337 6.48051 5.14126 6.4189C4.73841 6.28276 4.54487 5.59838 4.68863 5.23823C4.80709 4.9416 5.71779 5.00158 6.10228 5.24381V5.24367Z" fill="white"/>
<mask id="mask0_3287_44908" style="mask-type:luminance" maskUnits="userSpaceOnUse" x="4" y="5" width="3" height="2">
<path d="M6.10154 5.23391C6.35329 5.39249 6.33071 5.99609 6.50086 6.3463C6.50086 6.3463 6.79123 6.56649 6.67318 6.73365C6.60816 6.82572 6.50235 6.89495 6.38036 6.87183C6.30242 6.85714 6.17499 6.7297 6.09923 6.63654C5.72372 6.58295 5.32264 6.47075 5.14053 6.40914C4.73768 6.27299 4.54414 5.58861 4.6879 5.22847C4.80636 4.93184 5.71706 4.99182 6.10154 5.23404V5.23391Z" fill="white"/>
</mask>
<g mask="url(#mask0_3287_44908)">
<path opacity="0.15" d="M6.14405 5.12703C6.28332 5.8057 6.58035 6.49103 5.64749 6.19739C5.14536 6.03935 4.95821 5.88648 4.69599 5.40271C4.48722 5.01754 4.41949 4.46985 4.41949 4.46985L4.32837 6.45077L6.45061 6.98065L6.67216 6.8252L6.48515 6.48545L6.49739 6.19753L6.14418 5.12716L6.14405 5.12703Z" fill="#231F20"/>
</g>
<path d="M31.2188 13.6399C31.2188 15.393 31.7849 16.8142 32.4831 16.8142C33.1812 16.8142 33.7474 15.393 33.7474 13.6399C33.7474 11.8868 33.1813 10.4658 32.4831 10.4658C31.7848 10.4658 31.2188 11.8868 31.2188 13.6399Z" fill="#0C2635"/>
<path d="M32.4824 10.4658H34.071L34.1009 16.8925L32.4824 16.8142V10.4658Z" fill="#0C2635"/>
<path d="M32.7866 13.6791C32.7866 15.4537 33.3747 16.8924 34.0999 16.8924C34.8251 16.8924 35.4133 15.4536 35.4133 13.6791C35.4133 11.9046 34.8252 10.4658 34.0999 10.4658C33.3746 10.4658 32.7866 11.9045 32.7866 13.6791Z" fill="#0C2635"/>
<path d="M33.2185 13.676C33.2185 15.0347 33.652 16.1363 34.1865 16.1363C34.721 16.1363 35.1545 15.0347 35.1545 13.676C35.1545 12.3173 34.7211 11.2157 34.1865 11.2157C33.6518 11.2157 33.2185 12.3172 33.2185 13.676Z" fill="#BDC7D8"/>
<path d="M33.354 13.6826C33.354 14.9059 33.7355 15.8975 34.2061 15.8975C34.6767 15.8975 35.0583 14.9059 35.0583 13.6826C35.0583 12.4594 34.6768 11.4678 34.2061 11.4678C33.7354 11.4678 33.354 12.4594 33.354 13.6826Z" fill="#0C2635"/>
<path d="M34.3235 11.3029L34.1518 13.3072L35.0272 12.5812L35.0944 13.0057L34.1851 13.7686L34.9191 15.1309L34.8066 15.5031L34.0436 14.1021L33.7463 15.8204L33.5852 15.5108L33.8663 13.764L33.252 13.2686L33.3027 12.7673L33.9018 13.2741L34.0706 11.2772L34.3235 11.3029Z" fill="#BDC7D8"/>
<path d="M33.7629 13.6788C33.7629 14.072 33.8885 14.3906 34.0431 14.3906C34.1978 14.3906 34.3232 14.0718 34.3232 13.6788C34.3232 13.2857 34.1978 12.9668 34.0431 12.9668C33.8885 12.9668 33.7629 13.2856 33.7629 13.6788Z" fill="#BDC7D8"/>
<path d="M33.8054 13.6735C33.8054 13.8609 33.8653 14.0128 33.939 14.0128C34.0127 14.0128 34.0724 13.861 34.0724 13.6735C34.0724 13.4859 34.0127 13.334 33.939 13.334C33.8653 13.334 33.8054 13.4859 33.8054 13.6735Z" fill="#0C2635"/>
<path d="M35.4188 13.1818L35.4261 12.441C35.4261 12.441 35.3562 9.6799 34.2308 9.73919C33.3063 9.78788 32.9169 10.9313 32.6312 12.1964C32.3907 13.2604 32.2305 14.8625 31.6458 14.9516C30.3882 15.1435 28.8694 15.4055 27.5647 15.6024C26.2752 15.797 24.1831 16.3566 24.1831 16.3566C24.3743 14.1593 23.9884 9.71485 22.0907 9.81209C20.3364 9.90213 19.7126 13.1816 19.3902 16.8969C18.9992 17.1177 15.4756 17.3053 13.8676 17.3053C12.1524 17.3053 3.98581 17.0393 2.96821 16.9161C1.95062 16.7929 1.22394 16.7385 0.712424 15.6266C-0.126867 13.802 -0.0557359 12.1186 0.0974065 11.4663C0.37717 10.2742 0.68128 8.14548 5.06053 6.50321C5.20768 6.44799 5.96959 6.49124 6.13103 6.45452C9.41543 3.46212 13.016 1.13873 15.972 0.737239C18.8525 0.346086 23.5199 0.151597 26.9808 0.00743059C29.3165 -0.0899496 31.6223 1.17518 33.5929 3.51081C34.2862 4.05823 34.7903 4.42313 34.7903 4.42313C34.7903 4.42313 35.6965 8.27319 35.8608 8.56506C36.0694 8.93594 35.8364 12.7557 35.4188 13.1815V13.1818Z" fill="white"/>
<mask id="mask1_3287_44908" style="mask-type:luminance" maskUnits="userSpaceOnUse" x="0" y="0" width="36" height="18">
<path d="M35.4166 13.1819L35.4239 12.4411C35.4239 12.4411 35.354 9.68002 34.2286 9.73932C33.3041 9.78801 32.9147 10.9314 32.629 12.1965C32.3885 13.2605 32.2283 14.8627 31.6436 14.9517C30.386 15.1436 28.8672 15.4056 27.5625 15.6025C26.273 15.7972 24.1809 16.3567 24.1809 16.3567C24.3721 14.1594 23.9862 9.71497 22.0885 9.81222C20.3342 9.90225 19.7104 13.1818 19.388 16.897C18.997 17.1178 15.4734 17.3055 13.8654 17.3055C12.1502 17.3055 3.98361 17.0394 2.96602 16.9162C1.94842 16.793 1.22174 16.7386 0.710227 15.6267C-0.129064 13.8021 -0.0579331 12.1187 0.0952093 11.4665C0.374973 10.2744 0.679082 8.1456 5.05833 6.50333C5.20549 6.44811 5.96739 6.49136 6.12883 6.45464C9.41323 3.46224 13.0138 1.13885 15.9698 0.737361C18.8503 0.346208 23.5177 0.151719 26.9786 0.00755266C29.3143 -0.0898275 31.6201 1.1753 33.5907 3.51093C34.284 4.05835 34.7881 4.42326 34.7881 4.42326C34.7881 4.42326 35.6943 8.27331 35.8586 8.56518C36.0672 8.93607 35.8342 12.7558 35.4166 13.1816V13.1819Z" fill="white"/>
</mask>
<g mask="url(#mask1_3287_44908)">
<path opacity="0.2" d="M4.30357 6.22319C0.119067 7.43963 2.2394 8.7544 5.52001 8.75344C12.4195 8.75127 20.2877 6.02856 20.2877 6.02856L4.30357 6.22319Z" fill="white"/>
<path opacity="0.1" d="M19.1683 17.6892C19.1683 17.6892 19.0953 14.0398 19.7765 11.8259C20.2816 10.1842 21.0342 9.12093 22.2581 9.10107C23.7665 9.07672 25.0073 12.8721 24.1558 16.424C23.8787 17.5794 19.1683 17.6892 19.1683 17.6892Z" fill="#231F20"/>
<path opacity="0.1" d="M31.9287 15.3589C31.9287 15.3589 32.159 12.3794 32.5747 11.1072C32.9394 9.9914 33.5447 9.23725 34.3423 9.2231C35.3252 9.20569 35.9008 11.9935 35.3459 14.5389C35.1654 15.3669 31.9287 15.3589 31.9287 15.3589Z" fill="#231F20"/>
<path opacity="0.2" d="M21.7309 6.27556L32.9033 3.99474L33.6331 3.53857L34.8374 4.37787C34.7521 4.53509 34.1518 4.97738 33.7609 5.08945C31.2794 5.80103 25.601 6.67215 23.5428 6.96891L23.065 6.48487L22.3678 6.56797L22.879 7.058C20.9016 7.30444 18.5636 7.42004 21.7311 6.27542L21.7309 6.27556Z" fill="white"/>
</g>
<path opacity="0.2" d="M28.6122 13.9666C26.9978 14.2413 24.7479 14.6975 25.2289 14.8695C25.7098 15.0416 27.6724 14.5896 28.9507 14.3243C32.0019 13.6909 33.4222 13.1481 28.6123 13.9666H28.6122Z" fill="white"/>
<path d="M18.977 17.5428C19.2142 17.3968 19.3451 17.1898 19.3906 16.8978C19.3906 16.8978 15.5946 17.3642 15.2608 17.1452C14.1949 16.446 12.7118 15.1046 10.17 15.0227C8.88132 14.9812 2.04417 14.7306 1.24133 14.767C0.43849 14.8035 1.25806 17.4277 2.02663 17.5224C3.95301 17.7598 10.7606 18.0819 12.4637 18.0332C14.1432 17.9852 18.977 17.5426 18.977 17.5426V17.5428Z" fill="#0C2635"/>
<path opacity="0.07" d="M24.1524 9.09841C24.5829 10.9546 24.8425 14.3183 25.5195 14.228C26.3406 14.1185 30.4886 13.3449 31.024 13.199C31.5591 13.0531 32.2252 10.2851 32.6722 9.15431C33.0858 8.10815 34.5212 5.82121 35.4456 11.2953C35.5593 11.9687 35.6003 9.91281 35.543 9.17865C35.4214 7.62166 35.0006 6.91524 30.8597 7.29715C29.3571 7.43574 23.9019 8.01825 24.1524 9.09827V9.09841Z" fill="#231F20"/>
<path opacity="0.07" d="M19.1271 10.6238C19.468 9.88356 18.4217 9.88913 16.0073 11.5755C14.5266 12.6097 12.8022 13.7313 13.6627 14.4313C14.3561 14.9953 15.7426 15.7827 16.7298 15.7358C17.7169 15.6887 17.8627 15.1724 17.9636 14.7134C18.0928 14.1259 18.7862 11.3643 19.127 10.6238H19.1271Z" fill="#231F20"/>
<path opacity="0.07" d="M3.16331 11.1259C4.24007 11.1066 6.35768 11.189 7.62688 11.2259C9.24576 11.2728 10.5038 11.7287 11.6291 12.7114C12.1944 13.2051 9.90621 13.4924 7.48299 13.4699C5.90777 13.4552 4.02436 13.3796 2.94611 13.3028C1.86922 13.2261 0.640812 13.2724 0.901671 12.6428C1.11969 12.1165 1.76639 11.1511 3.16331 11.1259Z" fill="#231F20"/>
<path d="M5.53383 6.50066C9.08589 6.56145 17.6253 6.33038 20.2892 6.03837C21.968 3.36219 23.817 0.406236 26.9796 0.00488281C22.3572 0.077918 18.3725 0.293623 15.9343 0.552306C13.5258 0.807725 8.92758 3.36232 5.53369 6.50066H5.53383Z" fill="#0C2635"/>
<mask id="mask2_3287_44908" style="mask-type:luminance" maskUnits="userSpaceOnUse" x="5" y="0" width="22" height="7">
<path d="M5.53334 6.49577C9.08541 6.55657 17.6248 6.3255 20.2888 6.03349C21.9675 3.3573 23.8165 0.401353 26.9792 0C22.3567 0.0730351 18.372 0.28874 15.9338 0.547424C13.5253 0.802843 8.92709 3.35744 5.5332 6.49577H5.53334Z" fill="white"/>
</mask>
<g mask="url(#mask2_3287_44908)">
<path d="M5.74976 6.61144C12.574 1.72135 24.118 0.5536 26.9888 -0.0302734C22.3664 0.0427617 19.8682 0.172919 17.4276 0.407666C13.7593 0.760465 9.14364 3.4731 5.74976 6.61157V6.61144Z" fill="#5B6F80"/>
</g>
<path d="M32.2473 14.0918C32.2473 14.0918 30.2176 14.5648 28.3426 14.9554C26.591 15.3203 25.6664 15.5758 24.2128 15.9408C24.1519 16.0867 24.0121 16.3179 24.0121 16.3179L23.9885 16.47C23.9885 16.47 27.7649 15.6455 28.9334 15.4786C31.1473 15.1624 31.7706 15.1201 31.9434 14.9435C32.1161 14.7667 32.2475 14.0919 32.2475 14.0919L32.2473 14.0918Z" fill="#0C2635"/>
<path d="M21.7329 6.28056C26.6717 5.84262 32.349 4.59395 33.0876 4.38287C33.3856 4.29773 33.3985 4.12745 33.5203 3.61648C31.6956 1.42692 28.9031 0.514596 27.5408 0.66053C23.7454 1.06719 21.733 6.28043 21.733 6.28043L21.7329 6.28056Z" fill="#0C2635"/>
<mask id="mask3_3287_44908" style="mask-type:luminance" maskUnits="userSpaceOnUse" x="21" y="0" width="13" height="7">
<path d="M21.7349 6.2747C26.6736 5.83676 32.3509 4.5881 33.0896 4.37701C33.3876 4.29187 33.4005 4.1216 33.5222 3.61062C31.6976 1.42106 28.9051 0.508736 27.5427 0.654671C23.7473 1.06133 21.735 6.27457 21.735 6.27457L21.7349 6.2747Z" fill="white"/>
</mask>
<g mask="url(#mask3_3287_44908)">
<path d="M21.8242 5.98536C21.8242 5.98536 24.503 2.67743 28.4174 2.57937C31.4823 2.50253 33.5211 3.45987 33.5211 3.45987C33.5211 3.45987 33.3561 -0.145508 29.7068 -0.145508C26.0575 -0.145508 23.4787 0.68168 22.8462 1.84943C22.2136 3.01717 21.8244 5.98536 21.8244 5.98536H21.8242Z" fill="#5B6F80"/>
</g>
<path d="M27.8384 0.648452C27.7324 0.648452 27.6325 0.653484 27.5392 0.663548C23.7438 1.07021 21.7314 6.28345 21.7314 6.28345C26.6702 5.84551 32.3475 4.59684 33.0862 4.38576C33.3842 4.30062 33.3971 4.13034 33.5188 3.61936C31.8191 1.57968 29.2796 0.648315 27.8385 0.648315L27.8384 0.648452ZM33.0981 4.05023C33.0873 4.06995 33.0794 4.0841 33.0059 4.10504C32.6561 4.205 31.0526 4.57045 28.9308 4.96242C27.1959 5.28285 24.6651 5.70392 22.196 5.94669C22.4214 5.46061 22.8426 4.63655 23.4488 3.79671C23.9993 3.03413 24.5907 2.41136 25.2067 1.94595C25.9627 1.37459 26.7581 1.04069 27.5703 0.953649C27.6531 0.944808 27.7433 0.94032 27.8385 0.94032C28.5754 0.94032 29.5296 1.19275 30.4565 1.63273C31.206 1.98852 32.2795 2.63223 33.201 3.69607C33.1627 3.86009 33.132 3.9893 33.0983 4.05009L33.0981 4.05023Z" fill="#0C2635"/>
<g opacity="0.07">
<path d="M2.01685 10.0122C2.01685 10.0122 3.46463 10.2394 5.04624 10.2489C7.05437 10.2611 10.1511 10.0543 10.1511 10.0543L11.0102 8.77051C11.0102 8.77051 7.63987 9.15758 5.13859 9.13283C3.11455 9.11283 2.35237 8.8328 2.35237 8.8328L2.01685 10.0121V10.0122Z" fill="#231F20"/>
</g>
<path d="M27.8501 0.666016L28.9702 5.25472L29.7651 5.96889C29.8928 8.74232 29.8824 11.5642 29.4922 13.4204C29.4018 13.8504 29.8571 14.1685 29.8571 14.1685C29.8571 14.1685 29.8207 15.2318 29.1273 15.4324" stroke="#404041" stroke-width="0.0443231" stroke-linejoin="round"/>
<path d="M32.4702 2.58801L33.0869 4.39145L33.762 5.10303C33.762 5.10303 33.8603 6.88484 33.7893 7.41159C33.7183 7.93835 33.9286 8.34065 33.9627 8.6585C34.0427 9.40313 33.9868 9.78612 33.9868 9.78612" stroke="#404041" stroke-width="0.0443231" stroke-linejoin="round"/>
<path d="M22.7664 6.1759L23.544 6.97127C24.4928 9.54409 24.8638 13.4959 24.9856 14.2091C25.0627 14.661 25.241 14.9998 25.241 14.9998C25.241 14.9998 25.3424 16.0023 24.6753 16.3071" stroke="#404041" stroke-width="0.0443231" stroke-linejoin="round"/>
<path d="M16.4365 7.86167C16.4365 7.86167 20.2558 6.64823 21.7331 6.28333" stroke="#404041" stroke-width="0.0443231" stroke-linejoin="round"/>
<path d="M20.2898 6.04712C20.606 6.33912 20.6304 6.5823 20.6304 6.5823" stroke="#404041" stroke-width="0.0443231" stroke-linejoin="round"/>
<path d="M16.4365 7.86047C16.4365 7.86047 18.4055 8.87685 19.3056 9.31098C20.1099 9.699 20.5748 10.0857 20.5748 10.0857L20.9424 10.4678" stroke="#404041" stroke-width="0.0443231" stroke-linejoin="round"/>
<path d="M9.93506 10.3741C10.1588 9.97085 10.6953 9.12708 11.0088 8.7736C11.9873 8.65105 15.4089 8.12974 16.435 7.85352C16.0149 8.63623 15.8062 8.87125 15.2231 9.10586C14.2109 9.51306 12.259 10.0248 9.93506 10.3741Z" fill="#C9CCD4"/>
<path d="M2.01686 10.2516C1.48779 10.1976 0.865706 9.81662 0.897667 9.4305C0.946357 8.84404 1.80891 8.30273 1.80891 8.30273C1.73845 8.34476 1.87065 8.70273 2.41331 8.85342C2.24575 9.23342 2.11179 9.89305 2.01686 10.2516Z" fill="#C9CCD4"/>
<path d="M23.7239 4.9294C23.3384 5.10077 22.8946 5.78066 22.6342 6.1593C22.6342 6.1593 22.1897 6.39731 22.3703 6.57806C22.4699 6.67762 22.6319 6.75242 22.8186 6.72753C22.9379 6.71162 23.1332 6.57385 23.2491 6.47307C23.824 6.41513 24.4382 6.29381 24.7171 6.22717C25.3339 6.07987 25.6119 5.39196 25.6078 4.96272C25.6049 4.65535 24.3126 4.66759 23.7239 4.9294Z" fill="white"/>
<mask id="mask4_3287_44908" style="mask-type:luminance" maskUnits="userSpaceOnUse" x="22" y="4" width="4" height="3">
<path d="M23.7258 4.92745C23.3404 5.09882 22.8966 5.77871 22.6361 6.15735C22.6361 6.15735 22.1917 6.39536 22.3723 6.57611C22.4718 6.67567 22.6338 6.75047 22.8206 6.72558C22.9398 6.70967 23.1351 6.57189 23.251 6.47111C23.8259 6.41318 24.4401 6.29186 24.7191 6.22522C25.3358 6.07792 25.6138 5.39 25.6098 4.96077C25.6069 4.6534 24.3146 4.66564 23.7258 4.92745Z" fill="white"/>
</mask>
<g mask="url(#mask4_3287_44908)">
<path opacity="0.07" d="M23.5553 4.99518C23.0033 5.76402 22.5125 6.30043 23.9408 5.98312C24.7096 5.8123 24.9961 5.64692 25.3977 5.12398C25.7174 4.70766 25.8211 4.11536 25.8211 4.11536L25.9606 6.25704L22.7112 6.8299L22.3718 6.66179L22.6583 6.29444L22.6396 5.98312L23.5555 4.99518H23.5553Z" fill="#231F20"/>
</g>
</g>
<defs>
<clipPath id="clip0_3287_44908">
<rect width="36" height="20" fill="white"/>
</clipPath>
</defs>
</svg>
